<?xml version="1.0" encoding="UTF-8" standalone="no"?>
<!-- Created with Inkscape (http://www.inkscape.org/) -->

<svg
   version="1.1"
   id="svg1"
   width="1024"
   height="768"
   viewBox="0 0 1024 768"
   sodipodi:docname="history.svg"
   inkscape:version="1.4.3 (0d15f75042, 2025-12-25)"
   xmlns:inkscape="http://www.inkscape.org/namespaces/inkscape"
   xmlns:sodipodi="http://sodipodi.sourceforge.net/DTD/sodipodi-0.dtd"
   xmlns="http://www.w3.org/2000/svg"
   xmlns:svg="http://www.w3.org/2000/svg">
  <defs
     id="defs1" />
  <sodipodi:namedview
     id="namedview1"
     pagecolor="#ffffff"
     bordercolor="#111111"
     borderopacity="1"
     inkscape:showpageshadow="0"
     inkscape:pageopacity="0"
     inkscape:pagecheckerboard="1"
     inkscape:deskcolor="#d1d1d1"
     inkscape:zoom="1.5091146"
     inkscape:cx="479.75151"
     inkscape:cy="408.51769"
     inkscape:window-width="2560"
     inkscape:window-height="1368"
     inkscape:window-x="0"
     inkscape:window-y="0"
     inkscape:window-maximized="1"
     inkscape:current-layer="g1" />
  <g
     inkscape:groupmode="layer"
     inkscape:label="Image"
     id="g1">
    <path
       style="fill:#000000;fill-opacity:1;stroke:#000000;stroke-opacity:0.997155"
       d="m 480.16264,636.13996 c -42.30243,-4.6258 -80.83663,-18.85742 -116.8146,-43.1425 -14.88023,-10.04414 -24.28414,-17.84053 -37.21836,-30.85623 -43.4633,-43.73706 -69.27579,-97.27162 -75.44268,-156.46651 -1.45285,-13.94564 -1.23698,-39.69465 0.45398,-54.15016 8.27171,-70.71275 46.90529,-136.10685 105.02166,-177.76753 35.80693,-25.66818 76.68583,-41.42246 122.5,-47.21015 12.40852,-1.56757 46.79181,-1.55989 59.5,0.0133 79.52421,9.84447 148.37714,51.93609 190.7566,116.61456 12.63923,19.28967 29.56295,52.06826 32.76364,75.25 1.83535,13.29298 7.34664,-5.56653 9.00911,-8.80927 3.65667,-7.13254 7.4368,-13.96948 8.62099,-15.08197 2.98262,-2.80202 9.22757,-3.49038 13.16999,-1.45167 3.50388,1.81193 6.17967,6.16334 6.17967,10.0495 0,1.40575 -6.9913,16.53287 -15.53622,33.61582 -14.61071,29.20964 -15.74873,31.1487 -19.10359,32.55045 -2.1267,0.88859 -4.7452,1.23185 -6.48388,0.84997 -1.60408,-0.35231 -11.34496,-7.25769 -21.64641,-15.34528 -10.30144,-8.0876 -22.41808,-17.50157 -26.92586,-20.91994 -9.73471,-7.3821 -11.30404,-9.39929 -11.30404,-14.53012 0,-3.07636 0.70247,-4.57996 3.4,-7.27749 2.86716,-2.86716 4.11081,-3.4 7.93556,-3.4 4.22212,0 5.36308,0.6565 16.51032,9.5 11.95709,9.48599 14.73889,11.05039 13.78097,7.75 -13.80371,-47.55886 -59.92877,-154.82372 -198.12685,-174.89909 -16.54019,-2.40271 -48.78805,-2.41025 -64.5,-0.0151 -69.56746,10.60506 -126.46644,46.02346 -163.60071,101.83799 -19.23797,28.91555 -31.31099,59.65992 -37.04099,94.32618 -3.27477,19.81219 -14.20618,116.81362 67.73435,198.36242 36.93101,36.75446 82.9707,59.38721 134.90739,66.31942 14.06752,1.87765 47.88061,1.54708 62.5,-0.61103 32.27575,-4.76453 62.50895,-15.3899 90.01086,-31.63403 20.16899,-11.91292 46.22087,-34.61744 61.46632,-53.56863 21.96149,-27.29971 38.48636,-60.52463 46.4944,-93.48171 1.28477,-5.28745 3.07459,-11.04193 3.97737,-12.78772 3.50735,-6.78246 13.17636,-7.85235 18.59001,-2.05701 4.07371,4.36092 4.21969,7.46183 0.97172,20.64093 -10.52952,42.72497 -31.34751,81.33043 -62.18489,115.31736 -54.49292,60.0585 -138.31726,91.43292 -220.32579,82.46524 z m 60.5,-3.08034 c 22.57851,-2.86498 47.52689,-9.6561 69.88393,-19.02287 74.29775,-31.12799 132.09769,-100.16859 150.58043,-179.86459 2.15327,-9.28472 1.96926,-11.21767 -1.38744,-14.57436 -5.75475,-5.75476 -13.63821,-2.93808 -15.96658,5.70471 -0.57375,2.12971 -2.43097,9.04721 -4.12715,15.37221 -18.32337,68.32722 -66.32451,111.07941 -80.73919,122.67741 -26.2748,21.14063 -57.36687,36.74215 -89.41041,44.86477 -19.62387,4.9744 -32.24517,6.63828 -54.56423,7.19329 -32.21195,0.80101 -52.47255,-1.94099 -79.62552,-10.77624 -18.61684,-6.0577 -30.59785,-11.42319 -46.4371,-20.79607 -57.77016,-34.18552 -96.65109,-90.87855 -110.22557,-144.66316 -18.15889,-71.94898 -2.77924,-144.45422 43.05774,-202.98977 9.40748,-12.0137 29.1376,-31.59427 40.50533,-40.1983 43.52905,-32.94637 92.31393,-49.31193 146.99629,-49.31193 27.69454,0 49.79726,3.50143 75.45947,11.95401 54.86543,18.0715 99.09267,52.38472 127.89585,100.68238 10.15986,17.03622 19.73368,34.66095 26.05096,55.17157 5.76697,18.72396 3.34908,20.3196 -12.05681,7.95668 -16.58811,-13.31164 -17.27621,-13.60849 -22.32982,-9.63332 -6.44132,5.06675 -5.44249,10.21728 3.21387,16.57247 3.14927,2.31208 15.17595,11.65051 26.72595,20.75207 11.55,9.10157 22.07569,16.83701 23.39043,17.18987 6.00037,1.61046 6.69052,0.66812 22.8102,-31.14573 10.14757,-20.02729 15.21704,-31.09549 15.25,-33.29545 0.10646,-7.10595 -8.95026,-11.13096 -14.3143,-6.3616 -1.02502,0.91138 -4.96552,7.84455 -8.75668,15.40705 -5.16888,10.31076 -7.36096,13.75 -8.76388,13.75 -2.42273,0 -3.70866,-1.66792 -4.62585,-6 -0.40756,-1.925 -2.20307,-8.225 -3.99003,-14 C 722.70214,200.77064 621.31896,127.56616 508.66877,127.69205 c -41.6223,0.0465 -78.22234,8.64423 -115.91686,27.23002 -62.21313,30.67502 -109.80115,87.05647 -130.18215,154.23752 -17.22467,56.777 -13.36114,117.29511 11.00749,172.42082 40.99889,92.74597 143.73168,167.13156 267.08539,151.47921 z m -48.5,-80.964 c -21.81178,-3.0254 -33.44108,-5.82852 -47.81506,-11.52533 -39.98395,-15.84676 -73.47587,-46.78099 -92.6589,-85.58278 -38.43535,-77.74374 -12.62608,-171.45982 60.47396,-219.58708 51.23979,-33.73501 120.10593,-37.46969 175.94866,-9.54187 48.48421,24.24771 81.12623,66.14332 92.76846,119.06713 1.99665,9.07647 2.25223,12.99479 2.23395,34.24903 -0.018,20.96974 -0.29896,25.27575 -2.22505,34.10406 -7.19971,33.00034 -23.54008,63.37386 -46.72602,86.85446 -26.01101,26.34158 -55.82851,42.17051 -93.5,49.63545 -10.07485,1.99643 -40.39504,3.45112 -48.5,2.32693 z m 42.49387,-4.02566 C 583.00578,540.54711 624.2156,514.66911 651.66294,474.59493 698.43213,406.31009 689.6223,316.50603 630.521,259.08194 588.55931,218.31106 527.51631,200.2845 467.18748,214.61257 c -56.85423,13.50285 -103.08205,55.65948 -121.52586,110.82332 -7.27952,21.77242 -8.38604,28.84401 -8.40875,53.73883 -0.0174,19.10438 0.27459,23.35218 2.21857,32.27344 7.46526,34.25934 21.91599,61.52902 45.61246,86.07434 39.13894,40.54097 94.2293,59.15853 149.57261,50.54746 z m -44.99387,-17.11038 c -6.65342,-0.75101 -26.4458,-5.48863 -33.46018,-8.00922 -18.65941,-6.7052 -39.90491,-19.76486 -53.7485,-33.03934 -20.97785,-20.11544 -36.60621,-47.02619 -43.31518,-74.58515 -14.33959,-58.90387 8.48899,-121.19789 57.83414,-157.81623 28.55219,-21.18817 68.00081,-32.17479 104.01097,-28.96753 28.67648,2.55409 50.68144,9.98364 73.67875,24.87621 33.58964,21.75192 57.35465,56.43627 65.61035,95.7564 1.53189,7.29604 1.88266,13.16523 1.85275,31 -0.0404,24.07572 -1.04696,30.53927 -7.70873,49.5 -12.43909,35.40418 -41.05517,68.06781 -74.33421,84.84831 -15.69136,7.91215 -34.12262,13.74792 -50.92016,16.12251 -6.68376,0.94486 -32.11985,1.14708 -39.5,0.31404 z m 33.14405,-2.33112 c 34.85493,-3.52136 66.07046,-17.78536 90.71795,-41.45374 17.58765,-16.88898 28.29382,-32.73607 37.11006,-54.92967 14.79179,-37.23618 12.72681,-82.43492 -5.41164,-118.45082 -20.94869,-41.59593 -58.41676,-70.03152 -105.81139,-80.30329 -8.60868,-1.86575 -13.45002,-2.22886 -30.24903,-2.26874 -21.85719,-0.0519 -28.20079,0.83868 -46.98459,6.59612 -50.97436,15.62418 -89.6545,58.21629 -101.69123,111.9759 -3.09732,13.83357 -3.36834,44.4834 -0.51181,57.8805 6.27202,29.41562 21.41903,57.60792 41.9096,78.00401 22.83465,22.72936 54.09504,37.85965 87.77803,42.48528 12.09199,1.66058 20.18247,1.77395 33.14405,0.46445 z M 502.98782,522.278 c -2.68386,-2.30856 -2.80032,-2.80482 -3.16612,-13.49223 -0.42617,-12.45102 0.023,-15.29312 2.86638,-18.13649 2.92269,-2.92269 9.36429,-2.67574 12.52001,0.47999 2.34348,2.34347 2.45455,3.01851 2.45455,14.91821 0,6.85501 -0.27953,13.19211 -0.62118,14.08244 -0.79731,2.07776 -5.55975,4.5448 -8.7734,4.5448 -1.37164,0 -3.74775,-1.07852 -5.28024,-2.39672 z m 12.05364,-4.14808 c 0.34165,-0.89033 0.62118,-6.32743 0.62118,-12.08244 0,-9.77624 -0.16126,-10.62492 -2.45455,-12.91821 -2.8378,-2.83781 -5.19085,-3.09165 -8.32294,-0.89785 -2.09165,1.46505 -2.22251,2.28024 -2.22251,13.84502 0,12.79422 0.49065,14.34766 5,15.83059 1.96705,0.64687 6.58908,-1.71908 7.37882,-3.77711 z m -80.15631,-13.0119 c -3.34858,-2.34544 -2.8117,-6.68823 1.89865,-15.35799 5.03464,-9.26663 7.50658,-12.08531 10.59861,-12.08531 2.73233,0 7.28023,4.11414 7.28023,6.58587 0,0.92223 -2.28207,5.66463 -5.07127,10.53867 -6.6611,11.64006 -9.73774,13.79882 -14.70622,10.31876 z m 8.73489,-5.70254 c 5.77431,-8.53733 8.54791,-14.716 7.41417,-16.51633 -1.47382,-2.34038 -4.16755,-2.7208 -6.19597,-0.87501 -0.92158,0.83859 -3.68822,5.32379 -6.1481,9.96709 -3.90896,7.37865 -4.29798,8.65265 -3.0875,10.11119 2.09931,2.52952 5.18972,1.49381 8.0174,-2.68694 z m 131.80521,6.00924 c -2.78632,-2.15041 -11.75869,-18.11706 -11.7607,-20.92857 -0.004,-5.22785 5.65783,-8.21258 9.76352,-5.14724 3.12636,2.33416 12.22255,18.01018 12.22948,21.07581 0.0109,4.80719 -6.41413,7.94676 -10.2323,5 z m 7.14298,-3.57359 c 0.75948,-1.4191 -0.0218,-3.58172 -3.52215,-9.75 -5.55413,-9.7873 -7.47316,-11.8501 -10.21476,-10.97995 -3.70289,1.17525 -3.46467,3.95643 0.95878,11.19384 2.30593,3.77283 4.80596,7.8722 5.55562,9.1097 1.66194,2.74342 5.85015,2.99069 7.22251,0.42641 z M 383.15096,453.66181 c -2.53838,-2.80487 -2.3611,-7.82183 0.3483,-9.85707 1.19347,-0.89651 5.99692,-3.82069 10.67432,-6.49817 7.83462,-4.48476 8.73328,-4.77333 11.41093,-3.66421 4.03367,1.6708 5.84325,6.21569 3.74801,9.41343 -1.87259,2.85794 -19.0077,12.61893 -22.15213,12.61893 -1.21428,0 -3.02752,-0.90581 -4.02943,-2.01291 z m 22.94151,-11.04084 c 1.63037,-1.57261 1.75007,-2.25599 0.77144,-4.40386 -0.63712,-1.39831 -1.95554,-2.5366 -2.92983,-2.52953 -2.88256,0.0209 -19.71816,10.35268 -20.09992,12.33503 -0.19075,0.99051 0.43926,2.66953 1.40003,3.73117 1.7138,1.89373 1.90935,1.84322 10.33765,-2.67054 4.72494,-2.53044 9.45922,-5.43846 10.52063,-6.46227 z m 215.07017,9.38642 c -12.68443,-7.52885 -13.5,-8.2009 -13.5,-11.12435 0,-1.51982 0.70052,-3.76344 1.5567,-4.98581 2.57948,-3.68272 6.76804,-2.87189 17.14092,3.31816 10.15107,6.05768 11.86955,8.5657 9.17473,13.39004 -2.21494,3.96522 -7.02122,3.76523 -14.37235,-0.59804 z m 11.47732,-0.30999 c 1.10703,-1.10703 1.71622,-2.65772 1.3841,-3.52322 -0.84025,-2.18966 -19.02826,-12.84128 -20.77946,-12.16928 -2.43861,0.93578 -3.67049,4.17041 -2.29321,6.02141 1.14519,1.53909 17.36001,11.44473 18.96125,11.58344 0.4125,0.0357 1.63979,-0.82482 2.72732,-1.91235 z M 502.87405,397.54594 c -1.80873,-0.52162 -4.99,-2.64981 -7.0695,-4.72932 -8.15685,-8.15684 -7.77944,-21.22045 0.82217,-28.45822 l 3.03592,-2.55456 v -39.14148 -39.14149 l 2.92308,-2.92307 c 3.76131,-3.76131 8.75828,-3.96105 12.77116,-0.51048 l 2.80576,2.4126 0.28385,39.82126 c 0.15612,21.90168 0.63694,40.17433 1.06849,40.60588 0.43155,0.43155 17.23223,-7.32368 37.33484,-17.23385 24.37967,-12.01867 37.61849,-18.01849 39.75844,-18.01849 6.7834,0 11.58817,9.15257 7.63958,14.55259 -0.77813,1.06417 -18.152,10.26268 -38.6086,20.44113 -36.94804,18.384 -37.20247,18.5318 -38.50612,22.36902 -1.66276,4.89424 -5.84171,9.36685 -10.97048,11.7414 -4.35628,2.01689 -8.18793,2.23807 -13.28859,0.76708 z m 14.35468,-4.35709 c 3.04986,-1.78733 4.85069,-3.82458 6.40862,-7.25 1.19175,-2.62027 2.47247,-5.30212 2.84605,-5.95967 0.37358,-0.65755 17.45335,-9.54629 37.95504,-19.75277 31.12374,-15.4945 37.44097,-18.99164 38.27657,-21.18943 1.8898,-4.97054 -3.72981,-10.07101 -9.04719,-8.21142 -1.37785,0.48186 -17.96603,8.52005 -36.86263,17.86264 -18.8966,9.34258 -35.3441,16.98652 -36.55,16.98652 -4.56966,0 -4.59255,-0.20954 -4.59255,-42.04501 0,-38.15239 -0.0741,-39.71203 -1.96686,-41.425 -2.66073,-2.40792 -6.76627,-2.24244 -9.38036,0.37808 -2.14276,2.14803 -2.15102,2.33723 -1.77398,40.6336 l 0.37879,38.47553 -4.58806,4.90501 c -5.14231,5.49755 -6.14163,8.19693 -5.41643,14.63092 1.33317,11.82783 13.94937,18.03449 24.31299,11.961 z m -12.83187,-8.50855 c -5.48794,-4.31682 -2.14243,-13.00558 5.00765,-13.00558 3.56294,0 7.25813,3.83059 7.25813,7.52407 0,5.86127 -7.51402,9.21924 -12.26578,5.48151 z m 8.06578,-2.20558 c 3.42515,-3.42515 -1.36407,-10.17404 -5.60803,-7.90274 -2.61379,1.39886 -3.2896,4.51834 -1.52473,7.03805 1.59837,2.28199 5.27031,2.72714 7.13276,0.86469 z m -148.34545,2.74545 c -3.27622,-3.27621 -3.29464,-8.45629 -0.0435,-12.23969 2.38099,-2.77082 2.57398,-2.80986 15.4975,-3.13518 l 13.08649,-0.32942 3.00249,3.0025 c 3.2059,3.20589 3.82665,6.74043 1.83916,10.47208 -2.24401,4.21328 -3.78286,4.61933 -17.63211,4.65246 -12.80325,0.0306 -13.38633,-0.0591 -15.75,-2.42275 z m 27.3355,-0.18621 c 3.31933,-0.88917 5.6144,-5.72452 4.0906,-8.61827 -0.64903,-1.23253 -1.67519,-2.57158 -2.28035,-2.97566 -0.60517,-0.40408 -6.58014,-0.74158 -13.27772,-0.75 -11.99824,-0.0151 -12.20817,0.0238 -14.26752,2.64182 -2.3746,3.01882 -1.99406,5.88067 1.14262,8.59287 1.64322,1.42085 3.93094,1.74743 12.1631,1.73635 5.57657,-0.008 11.16974,-0.28971 12.42927,-0.62711 z m 230.6645,0.18621 c -4.74397,-4.74396 -2.42986,-13.50961 3.99201,-15.12139 1.31516,-0.33009 7.59139,-0.44803 13.94719,-0.26211 10.41323,0.30462 11.77873,0.56105 13.80839,2.5931 3.38919,3.39317 3.12863,9.70352 -0.53063,12.85108 -2.62678,2.25947 -3.51234,2.39387 -15.77273,2.39387 -12.45819,0 -13.09012,-0.10043 -15.44423,-2.45455 z m 28.91059,-1.61803 c 3.04977,-2.39895 3.47444,-6.34221 0.97987,-9.09868 -1.43307,-1.58352 -3.31034,-1.82874 -14,-1.82874 -11.01168,0 -12.56102,0.21601 -14.34501,2 -2.24515,2.24515 -2.50106,4.19525 -0.93463,7.12215 1.62357,3.03366 4.52489,3.74538 15.54977,3.81446 8.77693,0.055 10.46373,-0.21081 12.75,-2.00919 z M 391.66264,319.8848 c -8.66665,-5.2171 -9.5281,-6.01168 -9.82033,-9.05796 -0.40373,-4.20852 2.09633,-7.15212 6.07444,-7.15212 4.09814,0 21.31065,10.22765 22.0646,13.11075 0.67784,2.59206 -1.56172,7.38479 -3.86351,8.26807 -3.10995,1.1934 -5.0224,0.50956 -14.4552,-5.16874 z m 14.8,1.58992 c 2.76362,-2.76362 1.17988,-4.74642 -8.20088,-10.26729 -5.17049,-3.04299 -9.82574,-5.53271 -10.34501,-5.53271 -0.51928,0 -1.78246,0.92634 -2.80708,2.05854 -2.61636,2.89104 -1.30211,4.5194 8.15604,10.1054 8.21409,4.85126 11.16789,5.6651 13.19693,3.63606 z m 203.2,2.2 c -1.98442,-1.98442 -2.55288,-5.39565 -1.39986,-8.40037 0.61283,-1.59701 16.0379,-10.8156 20.19882,-12.07155 5.06603,-1.52916 9.84258,5.31767 6.87228,9.85091 -1.58834,2.42412 -19.34727,12.62101 -21.98078,12.62101 -0.92975,0 -2.59046,-0.9 -3.69046,-2 z m 13.96785,-5.80677 c 9.32535,-5.34532 11.12145,-7.24122 9.41985,-9.94323 -1.8915,-3.00355 -4.22252,-2.57063 -13.01133,2.41651 -9.30721,5.2813 -11.05145,7.20358 -9.37637,10.33349 1.58506,2.96171 3.70461,2.50295 12.96785,-2.80677 z M 443.47972,279.92472 c -0.8211,-0.9625 -3.89321,-5.71452 -6.82692,-10.56004 -4.6193,-7.62957 -5.20737,-9.17016 -4.38882,-11.49768 0.51985,-1.4782 2.25898,-3.31732 3.86473,-4.08693 2.51013,-1.20308 3.27678,-1.19878 5.46717,0.0307 3.02225,1.69635 13.06676,18.27775 13.06676,21.57051 0,5.21078 -7.88184,8.41308 -11.18292,4.54349 z m 7.24394,-2.31102 2.06102,-2.06102 -3.20854,-5.68898 c -7.65394,-13.57099 -9.5307,-15.54915 -12.79942,-13.49094 -2.86254,1.80244 -2.36899,4.22296 2.46497,12.08895 7.47791,12.1683 8.02755,12.60641 11.48197,9.15199 z m 114.39353,1.60647 c -1.35,-1.35 -2.45455,-3.00051 -2.45455,-3.6678 0,-1.78229 8.87213,-18.00358 11.28216,-20.62765 1.13656,-1.2375 3.13348,-2.25 4.43761,-2.25 2.68275,0 7.28023,4.09796 7.28023,6.48923 0,1.95672 -8.49376,17.19376 -11.29419,20.26077 -2.67846,2.93342 -6.19096,2.85576 -9.25126,-0.20455 z m 12.3388,-9.47197 c 5.47569,-9.38778 5.95437,-10.92577 4.00665,-12.87348 -3.32427,-3.32428 -6.33768,-0.60213 -12.42606,11.22503 -3.23759,6.28927 -3.59734,7.60086 -2.46053,8.97063 3.0157,3.6337 5.44208,2.00075 10.87994,-7.32218 z m -72.77364,0.64207 c -4.3339,-2.19284 -5.09939,-5.13538 -4.79729,-18.44059 0.25328,-11.15468 0.47502,-12.42222 2.53263,-14.47727 3.15516,-3.15123 9.25166,-3.07947 12.68858,0.14935 2.49212,2.34123 2.55637,2.73426 2.55637,15.63838 v 13.23679 l -3.07673,2.5889 c -3.38668,2.8497 -6.13428,3.2116 -9.90356,1.30444 z m 8.94134,-3.90411 c 1.78034,-1.91098 2.03895,-3.50473 2.03895,-12.56574 0,-9.8772 -0.85779,-13.78311 -3.3997,-15.48039 -1.91583,-1.27923 -5.87588,-0.82588 -7.77156,0.88968 -1.57837,1.42841 -1.82874,3.30008 -1.82874,13.67126 0,9.77794 0.30828,12.35692 1.65499,13.84501 2.25699,2.49395 6.81143,2.31785 9.30606,-0.35982 z"
       id="path2"
       sodipodi:nodetypes="ssssssssssssssssssssssssscsssssssssssssssssssssssssssssssssssssssssssssssssssssssssssssssssssssssssssssssssssssssssssssssssssssssssssssssssssssssssscsssssssssssssssssssssssssssssssssssssscccsscssssssssssssssssssssscsssssssssssssscssssssssssscssssssssssssssssssssssssssssssssssssssssssssssscssssssssssssssssssssscsssssssss" />
    <path
       style="fill:#ffffff;fill-opacity:1;stroke:#000000;stroke-width:0.999997;stroke-opacity:0.997155"
       d="m 483.69915,633.1365 c -56.91963,-5.64955 -110.72917,-30.81271 -152.2935,-71.2176 -43.93243,-42.70695 -69.19502,-93.22303 -77.04581,-154.06385 -1.80218,-13.96624 -1.66706,-42.647 0.26848,-56.98706 4.92156,-36.46302 15.50088,-66.95043 34.03116,-98.07075 41.05845,-68.95481 111.95054,-114.12682 193.07995,-123.02937 10.50161,-1.15237 42.60712,-1.1555 53.01122,-0.005 70.822,7.83046 133.73222,42.12207 177.31748,96.65365 20.29865,25.39661 34.42543,52.94527 44.10974,86.0185 3.43573,11.73349 4.703,14.24677 7.18365,14.24677 1.90279,0 3.90631,-2.90978 10.26581,-14.90941 3.66986,-6.92459 7.56252,-13.41018 8.65037,-14.41242 5.30974,-4.89193 14.28624,0.64529 11.92658,7.357 -1.65982,4.72111 -9.54764,21.19899 -17.76746,37.11672 -11.85924,22.96553 -13.99244,25.98758 -17.57315,24.89549 -0.80625,-0.24589 -4.00051,-2.24722 -7.09836,-4.44738 -7.62276,-5.41386 -43.43641,-33.23366 -46.60508,-36.20251 -3.14643,-2.948 -4.64174,-5.70572 -4.15195,-7.65721 0.45235,-1.80227 5.91645,-6.981 7.36569,-6.981 1.98874,0 6.01842,2.57985 14.83571,9.49798 13.86464,10.87835 18.03394,12.54113 18.95533,7.55966 0.97286,-5.2597 -6.70355,-27.78528 -15.41031,-45.21985 -19.37067,-38.7882 -41.21012,-66.08066 -70.9539,-88.67013 -33.74922,-25.63148 -78.35151,-43.21956 -120.71883,-47.60322 -10.66837,-1.10383 -40.34742,-1.10435 -51.0233,-8.9e-4 -43.5225,4.49849 -82.76521,19.44946 -117.54551,44.78331 -14.95854,10.89575 -34.84069,30.17329 -46.28047,44.8731 -25.68522,33.00483 -42.09176,71.76741 -47.91826,113.21317 -1.46326,10.40865 -2.03146,39.69933 -0.99236,51.15636 0.99137,10.93074 3.40105,25.5035 5.95968,36.04168 16.11563,66.37513 66.20631,127.20686 129.57934,157.36534 20.59808,9.80238 48.05692,17.8265 70.57118,20.62257 10.87142,1.35014 50.12476,1.1274 62.28818,-0.35344 55.23061,-6.72408 108.34753,-34.05341 144.93208,-74.5694 17.05539,-18.8882 29.36274,-36.61299 39.57508,-56.99526 7.79988,-15.56736 12.01304,-26.87936 17.57183,-47.17903 3.63523,-13.27512 4.55332,-15.38163 7.51315,-17.23834 3.27938,-2.0572 6.7913,-1.35333 9.90552,1.98527 3.14047,3.36675 3.15243,4.38326 0.19334,16.43441 -15.93122,64.88139 -58.00199,122.60288 -115.65649,158.68181 -32.03706,20.0481 -72.63544,33.51485 -112.57136,37.34066 -12.31676,1.17994 -35.44063,1.16525 -47.48445,-0.0301 z"
       id="path87" />
  </g>
</svg>
